<svg width="140" height="39" viewBox="0 0 140 39" fill="none" xmlns="http://www.w3.org/2000/svg">
<g clip-path="url(#clip0_46_160)">
<path d="M29.4502 7.8605C27.1997 6.80756 24.7934 6.04233 22.2777 5.6066C21.9687 6.16519 21.6078 6.91651 21.3589 7.51418C18.6846 7.112 16.0349 7.112 13.4098 7.51418C13.161 6.91651 12.7918 6.16519 12.4801 5.6066C9.96166 6.04233 7.55259 6.81037 5.30211 7.86608C0.762888 14.7254 -0.467621 21.4144 0.147635 28.0084C3.15829 30.2567 6.07597 31.6225 8.94442 32.5162C9.65265 31.5415 10.2843 30.5053 10.8285 29.4133C9.7921 29.0195 8.79949 28.5335 7.8616 27.9694C8.11042 27.785 8.3538 27.5923 8.58894 27.394C14.3094 30.0696 20.5249 30.0696 26.1771 27.394C26.415 27.5923 26.6583 27.785 26.9044 27.9694C25.9637 28.5363 24.9684 29.0223 23.9321 29.4161C24.4762 30.5053 25.1052 31.5443 25.8161 32.519C28.6873 31.6253 31.6077 30.2595 34.6184 28.0084C35.3403 20.3643 33.3851 13.7367 29.4502 7.8605ZM11.6078 23.9532C9.89056 23.9532 8.48229 22.35 8.48229 20.3978C8.48229 18.4456 9.86049 16.8397 11.6078 16.8397C13.3552 16.8397 14.7634 18.4428 14.7333 20.3978C14.736 22.35 13.3552 23.9532 11.6078 23.9532ZM23.1582 23.9532C21.441 23.9532 20.0327 22.35 20.0327 20.3978C20.0327 18.4456 21.4109 16.8397 23.1582 16.8397C24.9055 16.8397 26.3138 18.4428 26.2837 20.3978C26.2837 22.35 24.9055 23.9532 23.1582 23.9532Z" fill="white"/>
<path d="M46.7183 12.4724H54.1832C55.9827 12.4724 57.503 12.7601 58.7502 13.3327C59.994 13.9052 60.9267 14.7039 61.5448 15.7262C62.1624 16.7484 62.4741 17.9186 62.4741 19.2368C62.4741 20.5271 62.1515 21.6974 61.5062 22.7447C60.8609 23.7948 59.8792 24.6243 58.5586 25.236C57.238 25.8476 55.6024 26.1548 53.6475 26.1548H46.7183V12.4724ZM53.5708 22.6777C54.7822 22.6777 55.7149 22.3677 56.3654 21.7504C57.0164 21.1304 57.3419 20.287 57.3419 19.2173C57.3419 18.2258 57.0517 17.4354 56.4721 16.8433C55.8926 16.2512 55.0148 15.9524 53.8415 15.9524H51.5062V22.6777H53.5708Z" fill="white"/>
<path d="M73.6501 26.138C72.6164 25.8643 71.6838 25.4677 70.8555 24.9454V21.7001C71.4817 22.1944 72.3209 22.6022 73.3737 22.9234C74.4264 23.2418 75.4439 23.401 76.428 23.401C76.8875 23.401 77.2349 23.3395 77.4698 23.2166C77.7053 23.0938 77.823 22.9457 77.823 22.7754C77.823 22.5799 77.7601 22.4179 77.6314 22.2866C77.5027 22.1553 77.2539 22.0464 76.8851 21.9542L74.588 21.4264C73.2726 21.1136 72.34 20.6807 71.7853 20.1249C71.2301 19.5719 70.9536 18.8457 70.9536 17.9464C70.9536 17.1895 71.1943 16.5333 71.6814 15.9718C72.1651 15.4105 72.8542 14.9776 73.7483 14.6731C74.6428 14.3659 75.687 14.2123 76.8875 14.2123C77.9593 14.2123 78.941 14.3296 79.8355 14.5642C80.7296 14.7989 81.4678 15.0977 82.0559 15.4635V18.533C81.454 18.1671 80.7649 17.8794 79.9776 17.6615C79.1926 17.4465 78.3863 17.3404 77.5547 17.3404C76.3542 17.3404 75.7556 17.5498 75.7556 17.966C75.7556 18.1615 75.8485 18.3067 76.0344 18.4045C76.2203 18.5022 76.562 18.6028 77.0571 18.7089L78.971 19.0608C80.2211 19.2815 81.1533 19.6697 81.7657 20.2226C82.3785 20.7757 82.6845 21.594 82.6845 22.6776C82.6845 23.8646 82.1788 24.8058 81.1642 25.504C80.1496 26.2023 78.7113 26.5513 76.8465 26.5513C75.7499 26.5486 74.6838 26.4117 73.6501 26.138Z" fill="white"/>
<path d="M87.2024 25.7273C86.1063 25.1799 85.2775 24.437 84.7252 23.4986C84.1728 22.5601 83.894 21.5044 83.894 20.3314C83.894 19.1584 84.1809 18.1083 84.7552 17.1838C85.3295 16.2594 86.1716 15.5332 87.282 15.0054C88.3919 14.4775 89.7182 14.215 91.2633 14.215C93.1772 14.215 94.7661 14.6255 96.0295 15.4466V19.0244C95.5839 18.7115 95.064 18.4574 94.4706 18.2619C93.8773 18.0664 93.243 17.9686 92.5648 17.9686C91.3781 17.9686 90.4512 18.1893 89.7812 18.6333C89.1111 19.0774 88.7751 19.6555 88.7751 20.3733C88.7751 21.0771 89.1001 21.6525 89.7511 22.1049C90.4021 22.5546 91.3453 22.7808 92.5839 22.7808C93.2211 22.7808 93.8501 22.6858 94.4706 22.4987C95.0887 22.3088 95.622 22.077 96.0676 21.8032V25.2636C94.6651 26.1239 93.0381 26.554 91.1866 26.554C89.6282 26.5484 88.299 26.2747 87.2024 25.7273Z" fill="white"/>
<path d="M100.804 25.7276C99.699 25.1802 98.8569 24.4317 98.2769 23.4793C97.6974 22.5269 97.4048 21.4657 97.4048 20.2926C97.4048 19.1196 97.6945 18.0723 98.2769 17.1534C98.8593 16.2346 99.6961 15.514 100.796 14.9917C101.892 14.4694 103.202 14.2097 104.719 14.2097C106.237 14.2097 107.547 14.4694 108.643 14.9917C109.74 15.514 110.577 16.229 111.151 17.1422C111.725 18.0555 112.012 19.1029 112.012 20.2899C112.012 21.4628 111.725 22.5242 111.151 23.4765C110.577 24.4289 109.737 25.1774 108.632 25.7248C107.528 26.2722 106.223 26.5459 104.717 26.5459C103.21 26.5459 101.906 26.275 100.804 25.7276ZM106.62 22.2588C107.085 21.7841 107.32 21.1556 107.32 20.3736C107.32 19.5916 107.087 18.9688 106.62 18.5079C106.155 18.0443 105.52 17.8125 104.717 17.8125C103.899 17.8125 103.259 18.0443 102.791 18.5079C102.327 18.9716 102.094 19.5916 102.094 20.3736C102.094 21.1556 102.327 21.7841 102.791 22.2588C103.257 22.7336 103.899 22.9738 104.717 22.9738C105.52 22.971 106.155 22.7336 106.62 22.2588Z" fill="white"/>
<path d="M123.513 14.9348V19.1577C123.027 18.8309 122.397 18.6689 121.618 18.6689C120.598 18.6689 119.811 18.9845 119.264 19.6157C118.714 20.2469 118.44 21.23 118.44 22.5594V26.1567H113.751V14.7198H118.345V18.3561C118.599 17.0267 119.012 16.0464 119.581 15.4124C120.147 14.7812 120.88 14.4656 121.771 14.4656C122.447 14.4656 123.027 14.622 123.513 14.9348Z" fill="white"/>
<path d="M139.094 12.0815V26.1577H134.404V23.5967C134.008 24.5602 133.407 25.2948 132.597 25.7975C131.788 26.2974 130.787 26.5488 129.6 26.5488C128.539 26.5488 127.615 26.2862 126.825 25.7584C126.034 25.2305 125.425 24.5072 124.996 23.5883C124.569 22.6694 124.353 21.6305 124.353 20.4687C124.339 19.2705 124.566 18.1952 125.034 17.2428C125.499 16.2904 126.157 15.5476 127.005 15.0141C127.853 14.4807 128.821 14.2125 129.907 14.2125C132.141 14.2125 133.639 15.204 134.404 17.1842V12.0815H139.094ZM133.705 22.1807C134.183 21.7059 134.421 21.0887 134.421 20.3346C134.421 19.6056 134.189 19.0107 133.724 18.5555C133.259 18.1003 132.622 17.8712 131.821 17.8712C131.03 17.8712 130.399 18.103 129.926 18.5667C129.452 19.0303 129.217 19.6307 129.217 20.3737C129.217 21.1166 129.452 21.7227 129.926 22.1918C130.399 22.661 131.022 22.8957 131.801 22.8957C132.592 22.8929 133.226 22.6555 133.705 22.1807Z" fill="white"/>
<path d="M66.4255 15.9384C67.7165 15.9384 68.7635 14.9781 68.7635 13.7934C68.7635 12.6088 67.7165 11.6485 66.4255 11.6485C65.134 11.6485 64.0874 12.6088 64.0874 13.7934C64.0874 14.9781 65.134 15.9384 66.4255 15.9384Z" fill="white"/>
<path d="M64.0854 17.416C65.518 18.0472 67.2956 18.0751 68.7611 17.416V26.2192H64.0854V17.416Z" fill="white"/>
</g>
<defs>
<clipPath id="clip0_46_160">
<rect width="139.159" height="38.1258" fill="white"/>
</clipPath>
</defs>
</svg>
