<svg width="187" height="24" viewBox="0 0 187 24" fill="none" xmlns="http://www.w3.org/2000/svg">
<g clip-path="url(#clip0_46_172)">
<path d="M30.6802 17.894V5.02658H40.012V7.84822H33.9878V10.7624H39.0988V13.5841H33.9878V17.894H30.6802Z" fill="white"/>
<path d="M44.6191 18.1529C43.8158 18.166 43.0265 17.9425 42.3493 17.5102C41.6799 17.0728 41.1411 16.4627 40.7899 15.7443C40.4037 14.952 40.2103 14.0797 40.2255 13.1986C40.2095 12.3156 40.4029 11.4414 40.7899 10.6475C41.1427 9.93206 41.6813 9.32459 42.3493 8.88866C42.9454 8.52133 43.6217 8.30387 44.3201 8.25488C45.0186 8.2059 45.7186 8.32685 46.3601 8.60739C46.8599 8.83005 47.2971 9.17245 47.633 9.6043L47.6882 8.50235H50.419V17.8948H47.6882L47.633 16.7928C47.2971 17.2247 46.8599 17.5671 46.3601 17.7897C45.8134 18.0369 45.219 18.1609 44.6191 18.1529ZM45.3721 15.5057C45.6483 15.5171 45.9234 15.4654 46.1766 15.3547C46.4298 15.244 46.6545 15.0771 46.8337 14.8666C47.2108 14.3948 47.4038 13.802 47.3766 13.1986C47.4038 12.5951 47.2108 12.0023 46.8337 11.5305C46.6473 11.3289 46.4213 11.168 46.1698 11.058C45.9182 10.948 45.6467 10.8912 45.3721 10.8912C45.0976 10.8912 44.826 10.948 44.5745 11.058C44.323 11.168 44.0969 11.3289 43.9106 11.5305C43.5366 12.0036 43.3469 12.5962 43.3765 13.1986C43.3469 13.8009 43.5366 14.3935 43.9106 14.8666C44.0897 15.0771 44.3144 15.244 44.5676 15.3547C44.8209 15.4654 45.096 15.5171 45.3721 15.5057Z" fill="white"/>
<path d="M56.568 18.1525C55.6589 18.1714 54.7606 17.953 53.9618 17.5187C53.2245 17.1084 52.6152 16.5021 52.2011 15.767C51.7684 14.981 51.5498 14.0952 51.5674 13.1981C51.5502 12.2982 51.7706 11.4097 52.2065 10.6222C52.6205 9.88702 53.2299 9.28075 53.9671 8.87043C54.7651 8.43953 55.6614 8.22358 56.568 8.24379C57.2841 8.23588 57.9966 8.3478 58.6758 8.57491C59.266 8.76918 59.8179 9.06498 60.3064 9.449L58.9998 11.6725C58.7115 11.4703 58.3955 11.3108 58.0616 11.1989C57.7179 11.0808 57.3569 11.0206 56.9935 11.0209C56.2885 11.0209 55.7384 11.2215 55.3432 11.6226C55.1434 11.8318 54.9878 12.0791 54.886 12.3499C54.7841 12.6206 54.738 12.9091 54.7504 13.1981C54.7406 13.485 54.7879 13.7709 54.8897 14.0392C54.9915 14.3076 55.1456 14.553 55.3432 14.7611C55.7384 15.1706 56.2885 15.3759 56.9935 15.3771C57.3899 15.3773 57.7829 15.3036 58.1524 15.1599C58.5246 15.0169 58.8741 14.8208 59.1903 14.5778L60.5236 16.8013C60.005 17.2228 59.4171 17.5511 58.7861 17.7715C58.0752 18.0291 57.3241 18.1581 56.568 18.1525Z" fill="white"/>
<path d="M65.9571 18.1522C65.0052 18.1731 64.0628 17.9584 63.2138 17.5274C62.4483 17.132 61.8107 16.5277 61.3748 15.7846C60.9257 14.9977 60.6986 14.1037 60.7179 13.1979C60.6997 12.2996 60.915 11.412 61.3428 10.6219C61.7478 9.8892 62.3496 9.28429 63.0803 8.87555C63.8656 8.44309 64.751 8.22511 65.6473 8.24357C67.0941 8.24357 68.2186 8.68032 69.0208 9.55381C69.8231 10.4273 70.2249 11.6604 70.226 13.2531V14.1432H63.6393C63.8018 14.6397 64.1331 15.0636 64.5757 15.3413C65.082 15.6475 65.6666 15.7996 66.258 15.7792C67.1967 15.7792 68.1373 15.4695 69.0796 14.8499L70.2189 16.8812C69.6362 17.3076 68.9812 17.6254 68.2856 17.8193C67.5297 18.0426 66.7453 18.1547 65.9571 18.1522ZM63.5859 12.2241H67.3724V12.1494C67.381 11.9291 67.3427 11.7095 67.2602 11.5051C67.1776 11.3008 67.0527 11.1162 66.8935 10.9637C66.5533 10.6559 66.1057 10.4941 65.6473 10.5133C65.1695 10.4993 64.7018 10.6522 64.3246 10.9459C63.9378 11.2736 63.6767 11.7254 63.5859 12.2241Z" fill="white"/>
<path d="M77.4089 18.1523C76.809 18.1614 76.2143 18.0399 75.666 17.7962C75.1648 17.5745 74.7249 17.2342 74.3843 16.8047L74.338 17.8977H71.5894V4.26485L74.7154 3.98001V9.29216C75.0448 8.95385 75.443 8.69035 75.8832 8.51955C76.5021 8.28744 77.1658 8.19998 77.8237 8.26385C78.4815 8.32772 79.116 8.54123 79.6786 8.88806C80.3469 9.32322 80.8851 9.93094 81.2363 10.6469C81.6246 11.4403 81.8187 12.3147 81.8024 13.1979C81.8179 14.0794 81.6239 14.9519 81.2363 15.7437C80.8863 16.4623 80.348 17.0726 79.6786 17.5096C79.0015 17.9419 78.2121 18.1654 77.4089 18.1523ZM76.6452 15.5051C76.9213 15.5165 77.1964 15.4648 77.4496 15.3541C77.7029 15.2434 77.9276 15.0765 78.1067 14.866C78.4813 14.3932 78.6717 13.8005 78.6426 13.1979C78.6722 12.5956 78.4825 12.003 78.1085 11.5299C77.9221 11.3283 77.6961 11.1674 77.4446 11.0574C77.193 10.9474 76.9215 10.8906 76.6469 10.8906C76.3724 10.8906 76.1008 10.9474 75.8493 11.0574C75.5978 11.1674 75.3717 11.3283 75.1854 11.5299C74.8114 12.003 74.6217 12.5956 74.6513 13.1979C74.6217 13.8003 74.8114 14.3929 75.1854 14.866C75.3643 15.0762 75.5888 15.243 75.8417 15.3537C76.0946 15.4644 76.3693 15.5162 76.6452 15.5051Z" fill="white"/>
<path d="M87.6628 18.153C86.7287 18.1724 85.805 17.9543 84.9782 17.5192C84.2241 17.1125 83.596 16.5066 83.1624 15.7675C82.7148 14.9865 82.4877 14.0986 82.5055 13.1987C82.4864 12.2963 82.7135 11.4057 83.1624 10.6227C83.596 9.88362 84.2241 9.27771 84.9782 8.87096C85.8114 8.45421 86.7303 8.23724 87.6619 8.23724C88.5935 8.23724 89.5123 8.45421 90.3456 8.87096C91.1001 9.27718 91.7283 9.88322 92.1614 10.6227C92.609 11.4037 92.836 12.2916 92.8183 13.1915C92.836 14.0915 92.609 14.9794 92.1614 15.7604C91.7283 16.4998 91.1001 17.1059 90.3456 17.5121C89.5201 17.9498 88.5969 18.1704 87.6628 18.153ZM87.6628 15.4132C87.9368 15.4254 88.2101 15.3764 88.4629 15.2699C88.7157 15.1633 88.9416 15.0019 89.1243 14.7973C89.4966 14.3489 89.6871 13.7772 89.6584 13.1951C89.6871 12.613 89.4966 12.0413 89.1243 11.5929C88.9341 11.3979 88.7068 11.243 88.4558 11.1372C88.2048 11.0314 87.9352 10.9769 87.6628 10.9769C87.3904 10.9769 87.1208 11.0314 86.8697 11.1372C86.6187 11.243 86.3914 11.3979 86.2012 11.5929C85.829 12.0413 85.6384 12.613 85.6672 13.1951C85.6384 13.7772 85.829 14.3489 86.2012 14.7973C86.3837 15.0022 86.6096 15.1638 86.8624 15.2704C87.1152 15.377 87.3887 15.4258 87.6628 15.4132Z" fill="white"/>
<path d="M98.6328 18.153C97.6993 18.1728 96.776 17.9547 95.95 17.5192C95.1942 17.1135 94.5647 16.5074 94.1307 15.7675C93.683 14.9865 93.456 14.0986 93.4738 13.1987C93.4547 12.2963 93.6818 11.4057 94.1307 10.6227C94.5637 9.88322 95.1919 9.27718 95.9465 8.87096C96.7797 8.45421 97.6985 8.23724 98.6302 8.23724C99.5618 8.23724 100.481 8.45421 101.314 8.87096C102.069 9.27718 102.699 9.88314 103.133 10.6227C103.58 11.404 103.807 12.2916 103.79 13.1915C103.807 14.0914 103.58 14.9791 103.133 15.7604C102.7 16.4994 102.072 17.1054 101.317 17.5121C100.491 17.9497 99.5675 18.1702 98.6328 18.153ZM98.6328 15.4132C98.9069 15.4255 99.1802 15.3766 99.433 15.27C99.6858 15.1635 99.9118 15.002 100.094 14.7973C100.467 14.3489 100.657 13.7772 100.628 13.1951C100.657 12.613 100.467 12.0413 100.094 11.5929C99.9042 11.3979 99.6769 11.243 99.4258 11.1372C99.1748 11.0314 98.9052 10.9769 98.6328 10.9769C98.3604 10.9769 98.0908 11.0314 97.8398 11.1372C97.5888 11.243 97.3615 11.3979 97.1713 11.5929C96.799 12.0413 96.6085 12.613 96.6372 13.1951C96.6085 13.7772 96.799 14.3489 97.1713 14.7973C97.3539 15.002 97.5798 15.1635 97.8326 15.27C98.0854 15.3766 98.3588 15.4255 98.6328 15.4132Z" fill="white"/>
<path d="M111.45 17.8941L108.068 13.5843V17.8941H104.943V4.26485L108.068 3.98001V12.4538L111.138 8.50175H114.539L111.101 12.8312L115.155 17.8941H111.45Z" fill="white"/>
<path d="M125.964 18.2079C124.591 18.2079 123.396 17.9212 122.379 17.348C121.383 16.7956 120.564 15.9722 120.016 14.9732C119.442 13.8931 119.154 12.6839 119.18 11.4609C119.155 10.2384 119.445 9.02997 120.022 7.95206C120.571 6.95285 121.391 6.12903 122.388 5.57548C123.485 4.98377 124.718 4.68805 125.964 4.71742C126.922 4.7134 127.874 4.8606 128.786 5.15357C129.645 5.42171 130.443 5.85399 131.137 6.42642L129.713 8.78876C129.229 8.44725 128.696 8.18133 128.132 8.00013C127.558 7.81043 126.957 7.71309 126.352 7.71173C125.659 7.69759 124.974 7.85733 124.358 8.17637C123.794 8.47448 123.326 8.92867 123.013 9.48482C122.681 10.0895 122.514 10.7712 122.53 11.4609C122.517 12.1527 122.671 12.8374 122.981 13.4565C123.269 14.0268 123.718 14.5007 124.271 14.8201C124.884 15.1623 125.578 15.3327 126.279 15.3132C126.949 15.3238 127.614 15.2028 128.238 14.9572V13.0969H125.743V10.4871H131.349V16.5807C130.899 16.9366 130.399 17.2245 129.865 17.4353C129.251 17.6879 128.614 17.8787 127.963 18.0049C127.305 18.1382 126.636 18.2062 125.964 18.2079Z" fill="white"/>
<path d="M136.941 18.1529C136.138 18.166 135.348 17.9425 134.671 17.5102C134.002 17.0733 133.463 16.4629 133.113 15.7443C132.726 14.9525 132.532 14.08 132.547 13.1986C132.532 12.3151 132.727 11.4406 133.117 10.6475C133.468 9.93155 134.006 9.32383 134.675 8.88867C135.271 8.52132 135.948 8.30387 136.646 8.25488C137.345 8.2059 138.045 8.32685 138.687 8.60739C139.186 8.83099 139.623 9.17323 139.96 9.60431L140.015 8.50236H142.744V17.8948H140.012L139.956 16.7928C139.62 17.2239 139.183 17.5661 138.684 17.7897C138.136 18.0366 137.541 18.1606 136.941 18.1529ZM137.696 15.5057C137.971 15.5171 138.246 15.4654 138.499 15.3547C138.752 15.2439 138.977 15.077 139.155 14.8666C139.536 14.3962 139.731 13.8029 139.704 13.1986C139.732 12.595 139.539 12.0019 139.161 11.5305C138.975 11.3289 138.749 11.1681 138.497 11.0581C138.246 10.9481 137.974 10.8913 137.7 10.8913C137.426 10.8913 137.154 10.9481 136.903 11.0581C136.651 11.1681 136.426 11.3289 136.239 11.5305C135.865 12.0036 135.676 12.5962 135.705 13.1986C135.676 13.8009 135.865 14.3935 136.239 14.8666C136.418 15.0765 136.642 15.2432 136.894 15.3539C137.146 15.4646 137.42 15.5165 137.696 15.5057Z" fill="white"/>
<path d="M144.391 17.8949V8.5025H147.131L147.177 9.57063C147.492 9.15238 147.903 8.81645 148.375 8.59151C148.879 8.35158 149.432 8.22981 149.99 8.23547C150.555 8.22234 151.114 8.36195 151.606 8.63958C152.069 8.91066 152.448 9.30513 152.699 9.77891C153.062 9.29129 153.543 8.90409 154.097 8.65382C154.69 8.3788 155.337 8.23895 155.991 8.24437C157.059 8.24437 157.921 8.5832 158.578 9.26087C159.234 9.93854 159.56 10.8589 159.557 12.022V17.8967H156.424V12.4724C156.449 12.0535 156.323 11.6394 156.068 11.3063C155.942 11.1654 155.786 11.0548 155.611 10.983C155.437 10.9111 155.248 10.8799 155.06 10.8915C154.851 10.8827 154.642 10.9207 154.449 11.0026C154.257 11.0845 154.084 11.2083 153.946 11.3651C153.67 11.6802 153.531 12.1484 153.531 12.7661V17.8949H150.403V12.4724C150.427 12.0537 150.301 11.6402 150.047 11.3063C149.922 11.1661 149.767 11.056 149.593 10.9842C149.42 10.9123 149.232 10.8807 149.045 10.8915C148.833 10.881 148.622 10.9181 148.427 11C148.232 11.082 148.058 11.2068 147.918 11.3651C147.645 11.6802 147.51 12.1484 147.51 12.7661V17.8949H144.391Z" fill="white"/>
<path d="M162.678 7.36243C162.448 7.36266 162.221 7.31765 162.009 7.22997C161.797 7.14229 161.604 7.01366 161.442 6.85144C161.28 6.68923 161.151 6.49662 161.064 6.28463C160.976 6.07264 160.931 5.84544 160.931 5.61604C160.931 5.27013 161.033 4.9319 161.225 4.64414C161.417 4.35638 161.69 4.13204 162.01 3.9995C162.329 3.86697 162.681 3.8322 163.02 3.89959C163.359 3.96699 163.671 4.13352 163.915 4.37812C164.16 4.62271 164.327 4.93437 164.394 5.27364C164.461 5.61292 164.427 5.96457 164.294 6.28407C164.162 6.60358 163.937 6.87659 163.649 7.06855C163.362 7.2605 163.023 7.36278 162.678 7.36243ZM161.116 17.8942V8.50176H164.241V17.8942H161.116Z" fill="white"/>
<path d="M165.91 17.8935V8.50112H168.659L168.703 9.60307C169.046 9.172 169.487 8.83001 169.99 8.60616C170.543 8.36134 171.142 8.23984 171.746 8.25011C172.824 8.25011 173.69 8.58895 174.343 9.26661C174.996 9.94428 175.322 10.8647 175.322 12.0277V17.9024H172.196V12.471C172.22 12.051 172.084 11.6374 171.815 11.3139C171.679 11.1693 171.513 11.0564 171.328 10.9832C171.144 10.9099 170.945 10.8782 170.747 10.8902C170.514 10.8809 170.282 10.9226 170.066 11.0124C169.851 11.1022 169.658 11.2379 169.501 11.41C169.18 11.7836 169.013 12.2655 169.034 12.7576V17.8864L165.91 17.8935Z" fill="white"/>
<path d="M181.306 22.1929C180.558 22.1892 179.813 22.0978 179.086 21.9205C178.353 21.7523 177.65 21.4719 177.003 21.0891L178.025 18.7909C178.484 19.0469 178.973 19.246 179.481 19.3837C179.982 19.5251 180.5 19.5982 181.021 19.6009C181.793 19.6009 182.408 19.4323 182.869 19.0953C183.329 18.7582 183.559 18.2372 183.558 17.5323V16.6742C183.228 17.0309 182.823 17.31 182.372 17.4913C181.876 17.6918 181.345 17.7916 180.809 17.7851C180.008 17.7997 179.219 17.5814 178.539 17.1566C177.875 16.7345 177.336 16.1427 176.976 15.4423C176.602 14.6874 176.407 13.856 176.407 13.0132C176.407 12.1704 176.602 11.339 176.976 10.5841C177.337 9.88588 177.876 9.29605 178.539 8.87509C179.219 8.4498 180.008 8.23089 180.809 8.2449C181.406 8.2353 181.997 8.35684 182.541 8.60094C183.041 8.8236 183.478 9.166 183.814 9.59786L183.869 8.4959H186.6V17.5305C186.6 19.0508 186.13 20.2073 185.189 21.0001C184.247 21.7929 182.953 22.1905 181.306 22.1929ZM181.553 15.25C181.828 15.2585 182.101 15.2068 182.354 15.0985C182.606 14.9903 182.832 14.8281 183.015 14.6234C183.405 14.1773 183.609 13.5988 183.585 13.007C183.609 12.4145 183.405 11.8353 183.015 11.3887C182.826 11.1913 182.599 11.0342 182.348 10.9268C182.097 10.8195 181.827 10.7642 181.553 10.7642C181.28 10.7642 181.01 10.8195 180.759 10.9268C180.507 11.0342 180.281 11.1913 180.092 11.3887C179.702 11.8353 179.498 12.4145 179.522 13.007C179.498 13.5988 179.702 14.1773 180.092 14.6234C180.275 14.828 180.501 14.9901 180.753 15.0984C181.006 15.2066 181.279 15.2584 181.553 15.25Z" fill="white"/>
<path d="M23.0377 0H0.519822C0.381957 0 0.249738 0.0547667 0.152252 0.152252C0.0547667 0.249738 0 0.381957 0 0.519822V23.0395C0 23.1774 0.0547667 23.3096 0.152252 23.4071C0.249738 23.5046 0.381957 23.5593 0.519822 23.5593H15.3757V16.5453C15.3757 16.4877 15.3528 16.4324 15.3121 16.3917C15.2713 16.351 15.2161 16.3281 15.1585 16.3281H7.74926C7.6114 16.3281 7.47918 16.2733 7.38169 16.1759C7.28421 16.0784 7.22944 15.9461 7.22944 15.8083V7.75104C7.23178 7.61473 7.28757 7.48478 7.3848 7.38921C7.48204 7.29364 7.61293 7.2401 7.74926 7.24012H23.5575V0.519822C23.5575 0.381957 23.5028 0.249738 23.4053 0.152252C23.3078 0.0547667 23.1756 0 23.0377 0ZM8.18363 8.39904V15.1638C8.18363 15.221 8.20633 15.2758 8.24673 15.3162C8.28712 15.3566 8.34191 15.3793 8.39904 15.3793H15.8012C15.939 15.3793 16.0712 15.434 16.1687 15.5315C16.2662 15.629 16.321 15.7612 16.321 15.8991V23.554H23.0306C23.1685 23.554 23.3007 23.4992 23.3982 23.4017C23.4957 23.3042 23.5504 23.172 23.5504 23.0342V8.18363H8.39904C8.37075 8.18363 8.34274 8.18921 8.31661 8.20003C8.29047 8.21086 8.26673 8.22672 8.24673 8.24673C8.22672 8.26673 8.21086 8.29047 8.20003 8.31661C8.18921 8.34274 8.18363 8.37075 8.18363 8.39904Z" fill="white"/>
</g>
<defs>
<clipPath id="clip0_46_172">
<rect width="186.6" height="23.5575" fill="white"/>
</clipPath>
</defs>
</svg>
