<svg width="106" height="24" viewBox="0 0 106 24" fill="none" xmlns="http://www.w3.org/2000/svg">
<g clip-path="url(#clip0_46_145)">
<path fill-rule="evenodd" clip-rule="evenodd" d="M30.1059 0.791147C31.5415 1.17642 32.6772 2.31085 33.0629 3.74493C33.77 6.35624 33.7914 11.7715 33.7914 11.7715C33.7914 11.7715 33.7914 17.2082 33.0843 19.7981C32.6986 21.2322 31.563 22.3666 30.1273 22.7519C27.5346 23.4582 17.0993 23.4582 17.0993 23.4582C17.0993 23.4582 6.66408 23.4582 4.07135 22.7519C2.6357 22.3666 1.50003 21.2322 1.11434 19.7981C0.407227 17.1868 0.407227 11.7715 0.407227 11.7715C0.407227 11.7715 0.407227 6.35624 1.09291 3.76633C1.47861 2.33225 2.61427 1.19783 4.04992 0.812552C6.64266 0.106213 17.0779 0.0848083 17.0779 0.0848083C17.0779 0.0848083 27.5131 0.0848083 30.1059 0.791147ZM22.4131 11.7714L13.7564 16.78V6.76279L22.4131 11.7714Z" fill="white"/>
<path d="M48.8336 21.3392C48.1693 20.8898 47.6979 20.2048 47.4193 19.263C47.1408 18.3213 47.0122 17.0798 47.0122 15.5173V13.3983C47.0122 11.8358 47.1622 10.5515 47.4836 9.60974C47.805 8.64655 48.2979 7.96161 48.9835 7.53353C49.6692 7.10544 50.5478 6.87 51.6406 6.87C52.7119 6.87 53.5905 7.08404 54.2333 7.53353C54.8761 7.98301 55.369 8.66795 55.6689 9.60974C55.9689 10.5515 56.1189 11.8144 56.1189 13.3769V15.4959C56.1189 17.0584 55.9689 18.2998 55.6689 19.2416C55.369 20.1834 54.8976 20.8684 54.2333 21.3178C53.569 21.7459 52.6691 21.9814 51.5549 21.9814C50.3978 22.0028 49.4978 21.7673 48.8336 21.3392ZM52.5405 19.049C52.7334 18.5781 52.8191 17.7861 52.8191 16.7159V12.1568C52.8191 11.108 52.7334 10.3375 52.5405 9.86659C52.3477 9.37429 52.0263 9.13884 51.5763 9.13884C51.1263 9.13884 50.8263 9.37429 50.6335 9.86659C50.4406 10.3589 50.3549 11.108 50.3549 12.1568V16.7159C50.3549 17.7861 50.4406 18.5781 50.612 19.049C50.7835 19.5199 51.1049 19.7553 51.5763 19.7553C52.0263 19.7553 52.3477 19.5199 52.5405 19.049Z" fill="white"/>
<path d="M99.51 15.5601V16.3093C99.51 17.251 99.5315 17.9574 99.5957 18.4283C99.66 18.8992 99.7672 19.2416 99.9386 19.4557C100.11 19.6697 100.389 19.7767 100.753 19.7767C101.246 19.7767 101.589 19.5841 101.76 19.1988C101.953 18.8135 102.038 18.1714 102.06 17.2938L104.91 17.4651C104.931 17.5935 104.931 17.7647 104.931 17.9788C104.931 19.3272 104.567 20.3332 103.817 20.9968C103.067 21.6603 102.038 22.0028 100.689 22.0028C99.0601 22.0028 97.9244 21.4891 97.2816 20.4831C96.6387 19.4771 96.2959 17.8932 96.2959 15.7741V13.1842C96.2959 11.001 96.6387 9.39569 97.303 8.38969C97.9887 7.3837 99.1458 6.87 100.774 6.87C101.91 6.87 102.767 7.08404 103.367 7.49072C103.967 7.8974 104.396 8.53952 104.653 9.4171C104.91 10.2947 105.017 11.4933 105.017 13.0344V15.5387H99.51V15.5601ZM99.9386 9.39569C99.7672 9.60974 99.66 9.9308 99.5957 10.4017C99.5315 10.8726 99.51 11.5789 99.51 12.5421V13.5909H101.91V12.5421C101.91 11.6003 101.889 10.894 101.824 10.4017C101.76 9.90939 101.653 9.56693 101.481 9.37429C101.31 9.18165 101.053 9.07463 100.71 9.07463C100.346 9.09603 100.089 9.20306 99.9386 9.39569Z" fill="white"/>
<path d="M40.8197 15.2821L37.0698 1.75467H40.3482L41.6553 7.87627C41.9982 9.39597 42.2339 10.6802 42.4053 11.729H42.491C42.5981 10.9585 42.8553 9.69563 43.241 7.89768L44.5909 1.75467H47.8693L44.0766 15.2607V21.7462H40.8411V15.2821H40.8197Z" fill="white"/>
<path d="M66.7469 7.14871V21.7678H64.1756L63.8971 19.9698H63.8328C63.1257 21.3183 62.0757 22.0032 60.6829 22.0032C59.7187 22.0032 58.9902 21.6822 58.5402 21.04C58.0688 20.3979 57.8545 19.4133 57.8545 18.0649V7.14871H61.1543V17.8722C61.1543 18.5143 61.2186 18.9852 61.3686 19.2635C61.5186 19.5418 61.7543 19.6702 62.0757 19.6702C62.3543 19.6702 62.6328 19.5846 62.89 19.4133C63.1471 19.2421 63.34 19.0066 63.4685 18.7498V7.14871H66.7469Z" fill="white"/>
<path d="M83.6537 7.14871V21.7678H81.0824L80.8038 19.9698H80.7395C80.0324 21.3183 78.9825 22.0032 77.5897 22.0032C76.6254 22.0032 75.8969 21.6822 75.4469 21.04C74.9755 20.3979 74.7612 19.4133 74.7612 18.0649V7.14871H78.0611V17.8722C78.0611 18.5143 78.1254 18.9852 78.2754 19.2635C78.4253 19.5418 78.6611 19.6702 78.9825 19.6702C79.261 19.6702 79.5396 19.5846 79.7967 19.4133C80.0538 19.2421 80.2467 19.0066 80.3753 18.7498V7.14871H83.6537Z" fill="white"/>
<path d="M75.7041 4.40879H72.4257V21.7676H69.2115V4.40879H65.9331V1.75467H75.6827V4.40879H75.7041Z" fill="white"/>
<path d="M94.5384 9.48132C94.3455 8.56094 94.0241 7.89741 93.5742 7.46932C93.1242 7.06264 92.5242 6.8486 91.7314 6.8486C91.1314 6.8486 90.5529 7.01983 90.0386 7.3623C89.5029 7.70477 89.1172 8.15426 88.8172 8.71077H88.7958V1.00525H85.6245V21.7459H88.3458L88.6887 20.3547H88.7529C89.0101 20.847 89.3958 21.2322 89.8886 21.5319C90.4029 21.8101 90.96 21.96 91.5814 21.96C92.6956 21.96 93.5099 21.4463 94.0456 20.4189C94.5598 19.3915 94.8384 17.7862 94.8384 15.6243V13.3127C94.8384 11.686 94.7312 10.4017 94.5384 9.48132ZM91.5171 15.4531C91.5171 16.5233 91.4742 17.3581 91.3885 17.9574C91.3028 18.5567 91.1528 18.9848 90.9386 19.2416C90.7243 19.4985 90.4457 19.6269 90.1029 19.6269C89.8243 19.6269 89.5886 19.5627 89.3529 19.4343C89.1172 19.3059 88.9458 19.1132 88.7958 18.8564V10.5515C88.9029 10.1448 89.0958 9.82379 89.3743 9.56694C89.6529 9.31009 89.9315 9.18166 90.2529 9.18166C90.5957 9.18166 90.8528 9.31009 91.0243 9.56694C91.2171 9.82379 91.3243 10.2733 91.41 10.894C91.4742 11.5147 91.5171 12.3923 91.5171 13.5481V15.4531Z" fill="white"/>
</g>
<defs>
<clipPath id="clip0_46_145">
<rect width="105.424" height="23.5446" fill="white"/>
</clipPath>
</defs>
</svg>
